/vscmnt/brussel_pixiu_data/_data_brussel/112/vsc11236/PredSimResults/SUBJ11opt3D/trackIG/worker_14.mot
version=1
nRows=4
nColumns=50
inDegrees=yes
endheader
                time	         pelvis_tilt	         pelvis_list	     pelvis_rotation	           pelvis_tx	           pelvis_ty	           pelvis_tz	       hip_flexion_r	     hip_adduction_r	      hip_rotation_r	        knee_angle_r	       ankle_angle_r	         mtp_angle_r	       hip_flexion_l	     hip_adduction_l	      hip_rotation_l	        knee_angle_l	       ankle_angle_l	         mtp_angle_l	    lumbar_extension	      lumbar_bending	     lumbar_rotation	 ercspn_r/activation	 intobl_r/activation	 extobl_r/activation	    abd_r/activation	    add_r/activation	hamstrings_r/activation	bifemsh_r/activation	glut_max_r/activation	iliopsoas_r/activation	rect_fem_r/activation	  vasti_r/activation	gastroc_r/activation	 soleus_r/activation	tib_ant_r/activation	 ercspn_l/activation	 intobl_l/activation	 extobl_l/activation	    abd_l/activation	    add_l/activation	hamstrings_l/activation	bifemsh_l/activation	glut_max_l/activation	iliopsoas_l/activation	rect_fem_l/activation	  vasti_l/activation	gastroc_l/activation	 soleus_l/activation	tib_ant_l/activation	
          0.95461954	        -11.49282106	         -5.78898380	          9.10960286	          1.81377712	          0.91759120	         -0.00544456	         40.95805557	          0.34619251	         -7.88072764	         -7.75142701	          4.06840829	          0.35840847	         -9.51571503	         -7.18078111	          2.08192278	        -16.25653643	          2.53147268	         45.23055585	         -9.27346453	          5.05498041	         -4.46537036	          0.11774073	          0.18133284	          0.01805047	          0.09827704	          0.54589746	          0.12911138	          0.42185468	          0.05267731	          0.14706704	          0.03203014	          0.01000000	          0.01805043	          0.01557277	          0.66625557	          0.01300674	          0.01159111	          0.01000007	          0.01805049	          0.26651942	          0.02092257	          0.31556540	          0.01805045	          0.75031277	          0.01343514	          0.01805044	          0.22210049	          0.19598566	          0.01000001	
          0.96416573	        -11.41401453	         -5.63159296	          9.11290399	          1.83657509	          0.91513377	         -0.00456358	         40.76683253	          0.40576558	         -8.25256952	         -9.34394559	          3.06621637	          0.39684987	         -9.90069202	         -7.20151728	          1.69944148	        -17.99639208	          1.10088643	         46.39148932	         -8.78583784	          4.98127704	         -4.64724274	          0.10157917	          0.15644237	          0.01557279	          0.08478714	          0.52675421	          0.11138903	          0.36394919	          0.28130515	          0.12688001	          0.02763359	          0.01000002	          0.01557276	          0.01343519	          0.79605122	          0.02434978	          0.01000009	          0.01000034	          0.01557280	          0.31514092	          0.01805065	          0.27224964	          0.01557277	          0.84741797	          0.01159099	          0.01557276	          0.19161407	          0.16908386	          0.01000000	
          0.97371193	        -11.30986630	         -5.50518830	          9.05625421	          1.85922466	          0.91276344	         -0.00366195	         40.46441867	          0.47845290	         -8.35566707	        -11.25360595	          2.18058495	          0.27067747	         -9.78110944	         -7.23808467	          1.33200142	        -20.68582388	         -0.09995720	         46.86688854	         -8.34526600	          4.96374955	         -4.75475851	          0.08763605	          0.14531895	          0.01343521	          0.21850254	          0.49009149	          0.09609933	          0.31399204	          0.45379950	          0.10946394	          0.02384053	          0.01000000	          0.01343518	          0.01159102	          0.87536840	          0.10379424	          0.01000001	          0.01000013	          0.01343522	          0.27188340	          0.01557295	          0.23487957	          0.01343519	          0.90675823	          0.01000001	          0.01343518	          0.16531234	          0.14587472	          0.01000000	
          0.98325812	        -11.18706872	         -5.41388900	          8.93684938	          1.88137926	          0.91077570	         -0.00268641	         40.16811863	          0.60601598	         -8.40338601	        -13.17482592	          1.33738671	          0.23118341	         -9.08737374	         -7.30277236	          1.00212448	        -24.32454085	         -1.31211581	         46.75843830	         -7.99133901	          5.00433732	         -4.78423516	          0.10543991	          0.12537189	          0.01159104	          0.24781756	          0.42281955	          0.08290834	          0.27089221	          0.50588319	          0.09443848	          0.02056813	          0.02167913	          0.01159101	          0.00999999	          0.92383854	          0.11342286	          0.01000000	          0.01159092	          0.01159105	          0.23456359	          0.01343534	          0.20263909	          0.01159102	          0.83803829	          0.01000002	          0.01159101	          0.14262089	          0.12585136	          0.01000000	
